<svg width="48" height="48" viewBox="0 0 48 48" fill="none" xmlns="http://www.w3.org/2000/svg">
  <rect width="48" height="48" fill="#F1F2F6" />
  <g clip-path="url(#clip0_3009_2388)">
    <path
      d="M14.809 16.1068C14.5934 15.938 14.2778 15.9755 14.1059 16.1912C13.934 16.4068 13.9747 16.7224 14.1903 16.8943L33.1903 31.8943C33.4059 32.0662 33.7215 32.0287 33.8934 31.813C34.0653 31.5974 34.0278 31.2818 33.8122 31.1099L14.809 16.1068ZM31.9997 19.0005C31.9997 17.8974 31.1028 17.0005 29.9997 17.0005H18.3622L19.6278 18.0005H29.9997C30.5528 18.0005 30.9997 18.4474 30.9997 19.0005V24.2943L28.884 22.1787C28.3965 21.6912 27.6059 21.6912 27.1153 22.1787L26.1465 23.1474L26.9372 23.7724L27.8247 22.8849C27.9215 22.788 28.0809 22.788 28.1778 22.8849L30.9997 25.7068V26.9787L31.9997 27.7693V19.0005ZM23.2997 25.9943L22.9997 26.2943L20.884 24.1787C20.3965 23.6912 19.6059 23.6912 19.1153 24.1787L16.9997 26.2943V21.0224L15.9997 20.2318V29.0005C15.9997 30.1037 16.8965 31.0005 17.9997 31.0005H29.6372L28.3715 30.0005H20.7059L24.0872 26.6193L23.2965 25.9943H23.2997ZM22.2934 27.0005L19.2934 30.0005H17.9997C17.4465 30.0005 16.9997 29.5537 16.9997 29.0005V27.7068L19.8215 24.8849C19.9184 24.788 20.0778 24.788 20.1747 24.8849L22.2934 27.0005Z"
      fill="#7781A3" />
  </g>
  <defs>
    <clipPath id="clip0_3009_2388">
      <rect width="20" height="16" fill="white" transform="translate(14 16)" />
    </clipPath>
  </defs>
</svg>