<svg width="16" height="16" viewBox="0 0 16 16" fill="none" xmlns="http://www.w3.org/2000/svg">
  <g id="Sort">
    <path id="vector"
      d="M13.6484 11.3359L11.3984 13.5859C11.1641 13.8203 10.8125 13.8203 10.6016 13.5859L8.35156 11.3359C8.11719 11.125 8.11719 10.7734 8.35156 10.5625C8.5625 10.3281 8.91406 10.3281 9.14844 10.5625L10.4375 11.8516V3.8125C10.4375 3.50781 10.6719 3.25 11 3.25C11.3047 3.25 11.5625 3.50781 11.5625 3.8125V11.8516L12.8516 10.5625C13.0625 10.3281 13.4141 10.3281 13.6484 10.5625C13.8594 10.7734 13.8594 11.125 13.6484 11.3359ZM5.39844 3.41406L7.625 5.66406C7.85938 5.89844 7.85938 6.25 7.625 6.46094C7.41406 6.69531 7.0625 6.69531 6.82812 6.46094L5.53906 5.17188V13.1875C5.53906 13.5156 5.30469 13.75 4.97656 13.75C4.67188 13.75 4.41406 13.5156 4.41406 13.1875V5.17188L3.125 6.46094C2.91406 6.69531 2.5625 6.69531 2.35156 6.46094C2.11719 6.25 2.11719 5.89844 2.35156 5.66406L4.60156 3.41406C4.8125 3.20312 5.16406 3.20312 5.39844 3.41406Z"
      fill="#FFFFFF" />
  </g>
</svg>