<svg width="20" height="18" viewBox="0 0 20 18" fill="none" xmlns="http://www.w3.org/2000/svg">
  <path
    d="M19.1664 6.86369C19.1085 6.69602 19.0032 6.54875 18.8632 6.43973C18.7233 6.33072 18.5548 6.26464 18.378 6.24952L13.1622 5.48869L10.8247 0.749523C10.7496 0.594541 10.6324 0.463836 10.4865 0.372382C10.3406 0.280927 10.1719 0.232422 9.99969 0.232422C9.82749 0.232422 9.65877 0.280927 9.51286 0.372382C9.36695 0.463836 9.24975 0.594541 9.17469 0.749523L6.83719 5.47952L1.62136 6.24952C1.45171 6.27364 1.29221 6.34482 1.16097 6.455C1.02972 6.56518 0.931991 6.70994 0.878861 6.87286C0.830227 7.03206 0.825863 7.2015 0.866237 7.36299C0.90661 7.52449 0.990197 7.67194 1.10803 7.78952L4.89386 11.4562L3.97719 16.6629C3.94447 16.8347 3.9616 17.0123 4.02658 17.1748C4.09155 17.3372 4.20164 17.4776 4.34386 17.5795C4.48248 17.6786 4.64597 17.7371 4.81599 17.7485C4.98601 17.7598 5.15582 17.7235 5.30636 17.6437L9.99969 15.1962L14.6747 17.6529C14.8033 17.7254 14.9486 17.7633 15.0964 17.7629C15.2905 17.7635 15.4799 17.7026 15.6372 17.5887C15.7794 17.4868 15.8895 17.3464 15.9545 17.1839C16.0194 17.0215 16.0366 16.8439 16.0039 16.672L15.0872 11.4654L18.873 7.79869C19.0054 7.68656 19.1032 7.53918 19.1551 7.37368C19.207 7.20817 19.2109 7.03132 19.1664 6.86369ZM13.5289 10.5304C13.4214 10.6343 13.3409 10.763 13.2946 10.9052C13.2483 11.0475 13.2374 11.1988 13.263 11.3462L13.923 15.187L10.4764 13.3537C10.3437 13.2831 10.1958 13.2461 10.0455 13.2461C9.89527 13.2461 9.74732 13.2831 9.61469 13.3537L6.16803 15.187L6.82803 11.3462C6.85364 11.1988 6.8428 11.0475 6.79646 10.9052C6.75013 10.763 6.6697 10.6343 6.56219 10.5304L3.81219 7.78036L7.67136 7.22119C7.81986 7.20053 7.96103 7.14377 8.08248 7.05587C8.20394 6.96797 8.30199 6.85162 8.36803 6.71702L9.99969 3.22452L11.723 6.72619C11.7891 6.86079 11.8871 6.97714 12.0086 7.06504C12.13 7.15294 12.2712 7.2097 12.4197 7.23036L16.2789 7.78952L13.5289 10.5304Z"
    fill="#ABABAB" />
</svg>